<?xml version="1.0" encoding="UTF-8"?>
<svg id="Layer_1" data-name="Layer 1" xmlns="http://www.w3.org/2000/svg" xmlns:xlink="http://www.w3.org/1999/xlink" viewBox="0 0 336.74 55.83">
  <defs>
    <style>
      .cls-1 {
        fill: #ffffff;
      }

      .cls-2 {
        fill: url(#linear-gradient-7);
      }

      .cls-3 {
        fill: url(#linear-gradient-5);
      }

      .cls-4 {
        fill: url(#linear-gradient-6);
      }

      .cls-5 {
        fill: url(#linear-gradient-4);
      }

      .cls-6 {
        fill: url(#linear-gradient-3);
      }

      .cls-7 {
        fill: url(#linear-gradient-2);
      }

      .cls-8 {
        fill: url(#linear-gradient);
      }
    </style>
    <linearGradient id="linear-gradient" x1="10.65" y1="58.12" x2="37.33" y2="-8.24" gradientUnits="userSpaceOnUse">
      <stop offset=".1" stop-color="#c6cfef"/>
      <stop offset=".26" stop-color="#eedfb4"/>
      <stop offset=".45" stop-color="#f6f477"/>
      <stop offset=".7" stop-color="#fe8c21"/>
      <stop offset=".87" stop-color="#df9b8d"/>
    </linearGradient>
    <linearGradient id="linear-gradient-2" x1="42.48" y1="70.92" x2="69.16" y2="4.56" gradientUnits="userSpaceOnUse">
      <stop offset=".1" stop-color="#c6cfef"/>
      <stop offset=".26" stop-color="#e2f1c7"/>
      <stop offset=".45" stop-color="#f6f477"/>
      <stop offset=".7" stop-color="#fe8c21"/>
      <stop offset=".87" stop-color="#df9b8d"/>
    </linearGradient>
    <linearGradient id="linear-gradient-3" x1="11.47" y1="58.45" x2="38.15" y2="-7.91" xlink:href="#linear-gradient-2"/>
    <linearGradient id="linear-gradient-4" x1="-3.07" y1="52.61" x2="23.61" y2="-13.75" xlink:href="#linear-gradient-2"/>
    <linearGradient id="linear-gradient-5" x1="25.54" y1="64.11" x2="52.22" y2="-2.25" xlink:href="#linear-gradient-2"/>
    <linearGradient id="linear-gradient-6" x1="18.51" y1="61.28" x2="45.18" y2="-5.08" xlink:href="#linear-gradient-2"/>
    <linearGradient id="linear-gradient-7" x1="37.06" y1="68.74" x2="63.73" y2="2.38" xlink:href="#linear-gradient-2"/>
  </defs>
  <g>
    <path class="cls-8" d="M30.55,17.24c4.75,0,8.62-3.87,8.62-8.62S35.31,0,30.55,0s-8.62,3.87-8.62,8.62,3.87,8.62,8.62,8.62ZM30.55,3.21c2.98,0,5.41,2.43,5.41,5.41s-2.43,5.41-5.41,5.41-5.41-2.43-5.41-5.41,2.43-5.41,5.41-5.41Z"/>
    <path class="cls-7" d="M61.11,9.4h-3.21c0,7.78-3.27,14.81-8.5,19.79-.79.76-1.63,1.46-2.51,2.12.88.66,1.72,1.37,2.51,2.12,5.23,4.98,8.5,12.01,8.5,19.79h3.21c0-8.59-3.56-16.36-9.29-21.91,5.72-5.56,9.29-13.33,9.29-21.91Z"/>
    <path class="cls-6" d="M22.47,23.76c2.39,1.35,5.15,2.12,8.09,2.12s5.7-.77,8.09-2.12c5.01-2.83,8.4-8.21,8.4-14.36h-3.21c0,7.32-5.95,13.27-13.27,13.27s-13.27-5.95-13.27-13.27h-3.21c0,6.15,3.39,11.53,8.4,14.36Z"/>
    <path class="cls-5" d="M14.22,31.31c1.1-.82,2.27-1.57,3.49-2.22,1.16-.62,2.37-1.16,3.62-1.61-1.17-.6-2.28-1.31-3.31-2.12-4.73-3.72-7.77-9.49-7.77-15.96h-3.21c0,6.98,3.06,13.26,7.91,17.57-1.13.67-2.21,1.41-3.23,2.22C6.48,24.21,3.21,17.18,3.21,9.4H0c0,8.59,3.56,16.36,9.29,21.91C3.56,36.87,0,44.64,0,53.23h3.21c0-7.78,3.27-14.81,8.5-19.79.79-.76,1.63-1.46,2.51-2.12Z"/>
    <path class="cls-3" d="M38.64,38.87c-2.39-1.35-5.15-2.12-8.09-2.12s-5.69.77-8.09,2.12c-5.01,2.83-8.4,8.21-8.4,14.36h3.21c0-7.32,5.95-13.27,13.27-13.27s13.27,5.95,13.27,13.27h3.21c0-6.15-3.39-11.53-8.4-14.36Z"/>
    <path class="cls-4" d="M18.02,37.26c1.03-.81,2.14-1.52,3.31-2.12,2.77-1.42,5.9-2.22,9.22-2.22h0c3.01,0,5.89-.57,8.54-1.61,1.52-.59,2.96-1.34,4.3-2.22.98-.64,1.9-1.35,2.77-2.12,4.85-4.31,7.91-10.59,7.91-17.57h-3.21c0,6.47-3.04,12.24-7.77,15.96-1.03.81-2.14,1.52-3.31,2.12-2.77,1.42-5.9,2.22-9.22,2.22h0c-3.01,0-5.89.57-8.54,1.61-1.52.59-2.96,1.34-4.3,2.22-.98.64-1.9,1.35-2.77,2.12-4.85,4.31-7.91,10.59-7.91,17.57h3.21c0-6.47,3.04-12.24,7.77-15.96Z"/>
    <path class="cls-2" d="M46.17,35.65c-.87-.77-1.79-1.48-2.77-2.12-1.16.62-2.37,1.16-3.62,1.61,1.17.6,2.28,1.31,3.31,2.12,4.73,3.72,7.77,9.49,7.77,15.96h3.21c0-6.98-3.06-13.26-7.91-17.57Z"/>
  </g>
  <g>
    <path class="cls-1" d="M116.91,36.26c.13.09.19.23.19.41,0,.36-.26.53-.77.5-.44-.05-1.06-.09-1.86-.12-.8-.03-1.81-.04-3.02-.04s-2.21.01-3,.04c-.79.02-1.4.06-1.84.12-.52.05-.77-.12-.77-.5,0-.28.25-.5.74-.66.41-.13.67-.39.77-.79.1-.4.15-.96.15-1.68v-7.97h-10.41v7.97c0,.72.05,1.28.15,1.68.1.4.36.66.77.79.49.15.74.37.74.66,0,.36-.26.53-.77.5-.44-.05-1.06-.09-1.86-.12-.8-.03-1.81-.04-3.02-.04s-2.21.01-3,.04c-.79.02-1.4.06-1.84.12-.51.02-.77-.14-.77-.5,0-.28.25-.5.74-.66.41-.13.67-.39.77-.79.1-.4.15-.96.15-1.68V12.75c0-.72-.05-1.28-.15-1.68-.1-.4-.36-.66-.77-.79-.49-.15-.74-.37-.74-.66,0-.36.26-.53.77-.5.44.05,1.05.09,1.84.12.79.03,1.79.04,3,.04s2.22-.01,3.02-.04c.8-.03,1.42-.06,1.86-.12.51-.03.77.14.77.5,0,.28-.25.5-.74.66-.41.13-.67.39-.77.79-.1.4-.15.96-.15,1.68v10.99h10.41v-10.99c0-.72-.05-1.28-.15-1.68-.1-.4-.36-.66-.77-.79-.49-.15-.74-.37-.74-.66,0-.39.26-.55.77-.5.44.05,1.05.09,1.84.12.79.03,1.79.04,3,.04s2.22-.01,3.02-.04c.8-.03,1.42-.06,1.86-.12.52-.03.77.14.77.5,0,.18-.06.32-.19.41-.13.09-.3.17-.5.25-.44.13-.71.39-.81.79-.1.4-.15.96-.15,1.68v20.78c0,.72.05,1.28.15,1.68.1.4.37.66.81.79.21.08.37.16.5.25Z"/>
    <path class="cls-1" d="M143.17,36.28c.12.08.17.18.17.31,0,.39-.28.58-.85.58h-.43c-.54,0-1.15-.01-1.82-.04-.67-.02-1.33-.15-1.99-.37-.66-.22-1.27-.58-1.82-1.08-.55-.5-.97-1.22-1.26-2.15-.23.51-.53,1.02-.91,1.53s-.83.95-1.37,1.34-1.18.7-1.91.95c-.74.24-1.58.37-2.53.37-2.76,0-4.76-.75-6-2.24-1.24-1.5-1.86-3.77-1.86-6.81v-9.02c0-.75-.04-1.32-.13-1.7s-.36-.65-.79-.77c-.49-.13-.73-.36-.73-.7,0-.36.26-.57.77-.62.64,0,1.63-.03,2.96-.08s2.84-.22,4.55-.5c.26-.05.46-.02.6.1.14.12.21.29.21.52v12.77c0,.75.05,1.46.16,2.13s.28,1.26.52,1.78c.25.52.59.93,1.03,1.24.44.31,1,.46,1.7.46s1.3-.18,1.74-.54c.44-.36.78-.83,1.02-1.41.25-.58.41-1.23.48-1.95.08-.72.11-1.43.11-2.13v-8.59c0-.75-.06-1.32-.17-1.7-.12-.39-.39-.65-.83-.77-.47-.13-.7-.36-.7-.7,0-.39.25-.59.74-.62.64,0,1.64-.03,2.98-.08,1.34-.05,2.86-.22,4.57-.5.26-.05.46-.02.6.1.14.12.21.29.21.52v17.84c0,.34.02.66.06.97.04.31.1.58.19.81.09.23.21.4.37.5.13.1.25.19.37.27Z"/>
    <path class="cls-1" d="M186.14,36.67c0,.39-.26.55-.77.5-.41-.05-.99-.09-1.74-.12-.75-.03-1.7-.04-2.86-.04s-2.12.01-2.86.04c-.75.02-1.32.06-1.7.12-.52.05-.77-.12-.77-.5,0-.28.23-.5.7-.66.44-.13.71-.39.81-.79.1-.4.16-.96.16-1.68v-9.75c0-.75-.05-1.46-.16-2.15-.1-.68-.28-1.28-.54-1.8-.26-.52-.61-.93-1.04-1.24s-.99-.46-1.66-.46-1.24.15-1.72.46c-.48.31-.87.72-1.16,1.24-.3.52-.51,1.1-.64,1.76-.13.66-.19,1.32-.19,1.99v9.94c0,.72.04,1.28.13,1.68.09.4.36.66.79.79.49.15.74.37.74.66,0,.39-.27.55-.81.5-.39-.05-.95-.09-1.7-.12-.75-.03-1.7-.04-2.86-.04s-2.11.01-2.86.04c-.75.02-1.32.06-1.7.12-.54.05-.81-.12-.81-.5,0-.28.25-.5.74-.66.44-.13.7-.39.79-.79.09-.4.14-.96.14-1.68v-9.75c0-.75-.04-1.46-.14-2.15-.09-.68-.26-1.28-.52-1.8s-.61-.93-1.04-1.24-.99-.46-1.66-.46-1.28.15-1.76.46-.86.72-1.16,1.24c-.3.52-.51,1.1-.64,1.76-.13.66-.19,1.32-.19,1.99v9.94c0,.72.05,1.28.15,1.68.1.4.38.66.81.79.46.15.7.37.7.66,0,.39-.26.55-.77.5-.39-.05-.95-.09-1.7-.12-.75-.03-1.7-.04-2.86-.04s-2.11.01-2.86.04c-.75.02-1.33.06-1.74.12-.52.05-.77-.12-.77-.5,0-.18.06-.32.19-.41.13-.09.3-.17.5-.25.44-.13.71-.39.81-.79.1-.4.16-.96.16-1.68v-12.19c0-.75-.05-1.32-.16-1.72-.1-.4-.37-.66-.81-.79-.49-.13-.73-.35-.73-.66,0-.36.22-.58.66-.66.67-.13,1.65-.37,2.94-.73,1.29-.36,2.68-.92,4.18-1.66.26-.13.46-.15.6-.06.14.09.24.28.29.56l.35,2.98c.26-.52.58-1.01.97-1.49.39-.48.85-.9,1.39-1.28.54-.37,1.17-.67,1.9-.89s1.55-.33,2.48-.33c1.93,0,3.48.37,4.64,1.1,1.16.73,2.01,1.84,2.55,3.31.26-.54.59-1.07.99-1.59.4-.52.9-.99,1.49-1.41.59-.43,1.29-.77,2.09-1.03.8-.26,1.73-.39,2.79-.39,2.76,0,4.76.77,6,2.3s1.86,3.82,1.86,6.87v9.75c0,.72.05,1.28.15,1.68.1.4.36.66.77.79.49.15.74.37.74.66Z"/>
    <path class="cls-1" d="M209.92,36.2c.17.08.25.21.25.39,0,.39-.28.58-.85.58h-.58c-.51,0-1.11,0-1.78-.02-.67-.01-1.34-.12-1.99-.33s-1.26-.54-1.82-1.01c-.55-.46-.97-1.16-1.26-2.09-.31.67-.7,1.25-1.18,1.74-.48.49-1.02.9-1.62,1.24s-1.24.58-1.9.74-1.32.23-1.99.23c-2.11,0-3.75-.5-4.91-1.49s-1.77-2.26-1.82-3.81c-.03-1.34.22-2.47.73-3.39.52-.92,1.19-1.68,2.03-2.3.84-.62,1.77-1.12,2.81-1.49,1.03-.37,2.04-.7,3.02-.97.98-.27,1.87-.52,2.67-.73.8-.22,1.39-.5,1.78-.83v-.58c0-1.01-.02-1.9-.06-2.69-.04-.79-.14-1.45-.29-1.99-.15-.54-.39-.95-.7-1.24-.31-.28-.74-.43-1.28-.43-.75,0-1.29.17-1.62.52-.34.35-.57.77-.7,1.28-.13.5-.21,1.05-.25,1.64-.04.59-.15,1.14-.35,1.63-.19.49-.52.88-.97,1.18-.45.3-1.15.42-2.11.37-.7-.05-1.27-.27-1.72-.66-.45-.39-.75-.87-.89-1.45-.14-.58-.1-1.2.14-1.86s.68-1.26,1.35-1.82c.67-.55,1.59-1.02,2.77-1.39,1.17-.37,2.62-.56,4.35-.56,3.22,0,5.63.66,7.22,1.97s2.38,3.39,2.38,6.23v.73c0,.44,0,.98.02,1.63.01.65.03,1.35.04,2.11.01.76.02,1.5.04,2.22.01.72.02,1.37.02,1.95v2.15c0,.31.02.61.06.89.04.28.1.55.17.79.08.24.18.43.31.56.15.15.32.27.48.35ZM200.63,32.62c.58-.58.87-1.33.87-2.26v-5.46c-.39.26-.92.56-1.59.91-.67.35-1.32.77-1.93,1.28-.62.5-1.14,1.1-1.57,1.78-.43.68-.59,1.48-.48,2.38.08.75.37,1.31.87,1.68s1.08.56,1.72.56c.83,0,1.53-.29,2.11-.87Z"/>
    <path class="cls-1" d="M238.11,36.67c0,.39-.27.55-.81.5-.39-.05-.95-.09-1.7-.12-.75-.03-1.7-.04-2.86-.04s-2.11.01-2.86.04c-.75.02-1.32.06-1.7.12-.54.05-.81-.12-.81-.5,0-.28.25-.5.74-.66.44-.13.7-.39.79-.79.09-.4.14-.96.14-1.68v-9.75c0-.75-.04-1.46-.14-2.15-.09-.68-.26-1.28-.52-1.8s-.61-.93-1.04-1.24-.99-.46-1.66-.46-1.28.15-1.76.46-.86.72-1.16,1.24c-.3.52-.51,1.1-.64,1.76-.13.66-.19,1.32-.19,1.99v9.94c0,.72.05,1.28.15,1.68.1.4.38.66.81.79.46.15.7.37.7.66,0,.39-.26.55-.77.5-.39-.05-.95-.09-1.7-.12-.75-.03-1.7-.04-2.86-.04s-2.11.01-2.86.04c-.75.02-1.33.06-1.74.12-.52.05-.77-.12-.77-.5,0-.18.06-.32.19-.41.13-.09.3-.17.5-.25.44-.13.71-.39.81-.79.1-.4.16-.96.16-1.68v-12.19c0-.75-.05-1.32-.16-1.72-.1-.4-.37-.66-.81-.79-.49-.13-.73-.35-.73-.66,0-.36.22-.58.66-.66.67-.13,1.65-.37,2.94-.73,1.29-.36,2.68-.92,4.18-1.66.26-.13.46-.15.6-.06.14.09.24.28.29.56l.35,2.98c.26-.52.58-1.01.97-1.49.39-.48.85-.9,1.39-1.28.54-.37,1.17-.67,1.9-.89s1.55-.33,2.48-.33c2.79,0,4.8.77,6.04,2.3,1.24,1.53,1.86,3.82,1.86,6.87v9.75c0,.72.04,1.28.13,1.68.09.4.36.66.79.79.49.15.74.37.74.66Z"/>
    <path class="cls-1" d="M267.69,36.26c.14.09.21.23.21.41,0,.39-.26.55-.77.5-.47-.03-1.14-.06-2.03-.1-.89-.04-1.95-.06-3.19-.06s-2.22.01-3.02.04c-.8.02-1.42.06-1.86.12-.52.05-.77-.12-.77-.5,0-.18.06-.3.17-.37.12-.06.26-.17.45-.33.21-.21.24-.54.12-.99-.13-.45-.32-.94-.58-1.45l-4.87-9.48-1.32,1.74v7.74c0,.72.05,1.28.15,1.68.1.4.36.66.77.79.49.15.74.37.74.66,0,.36-.26.53-.77.5-.44-.05-1.06-.09-1.86-.12-.8-.03-1.81-.04-3.02-.04s-2.21.01-3,.04c-.79.02-1.4.06-1.84.12-.51.02-.77-.14-.77-.5,0-.28.25-.5.74-.66.41-.13.67-.39.77-.79.1-.4.15-.96.15-1.68V12.75c0-.72-.05-1.28-.15-1.68-.1-.4-.36-.66-.77-.79-.49-.15-.74-.37-.74-.66,0-.36.26-.53.77-.5.44.05,1.05.09,1.84.12.79.03,1.79.04,3,.04s2.22-.01,3.02-.04c.8-.03,1.42-.06,1.86-.12.51-.03.77.14.77.5,0,.28-.25.5-.74.66-.41.13-.67.39-.77.79-.1.4-.15.96-.15,1.68v10.29l8.01-11.3c.67-.95,1.45-1.7,2.34-2.24.89-.54,1.79-.81,2.69-.81.49,0,.92.06,1.28.19.9.36,1.53.87,1.88,1.53.35.66.46,1.32.35,1.99s-.44,1.26-.97,1.78c-.53.52-1.25.81-2.15.89-.34.03-.66,0-.97-.08-.31-.08-.61-.17-.91-.29-.3-.12-.58-.23-.85-.33-.27-.1-.56-.15-.87-.15-.44,0-.9.16-1.37.48-.48.32-1.02.96-1.64,1.92l-.93,1.24,8.59,15.67c.39.72.77,1.28,1.14,1.68.37.4.82.66,1.34.79.21.08.38.16.52.25Z"/>
    <path class="cls-1" d="M281.1,36.67c0,.39-.27.55-.81.5-.39-.05-.95-.09-1.7-.12-.75-.03-1.7-.04-2.86-.04s-2.12.01-2.86.04c-.75.02-1.33.06-1.74.12-.51.05-.77-.12-.77-.5,0-.28.25-.5.74-.66.41-.13.67-.39.77-.79.1-.4.15-.96.15-1.68v-12.19c0-.72-.05-1.28-.15-1.68-.1-.4-.36-.66-.77-.79-.49-.15-.74-.39-.74-.7,0-.36.23-.59.7-.7.34-.05.78-.14,1.33-.25s1.17-.27,1.84-.46,1.38-.43,2.13-.7c.75-.27,1.48-.59,2.21-.95.57-.26.85-.09.85.5v17.91c0,.72.05,1.28.15,1.68.1.4.37.66.81.79.49.15.74.37.74.66ZM273.61,13.82c-.55-.19-1.04-.46-1.47-.79-.43-.33-.76-.73-1.01-1.2-.25-.46-.37-.95-.37-1.47s.12-1.01.37-1.47c.24-.46.58-.87,1.01-1.22.43-.35.92-.62,1.47-.81s1.15-.29,1.8-.29,1.25.1,1.82.29,1.06.46,1.49.81c.43.35.76.75,1.01,1.22.24.46.37.95.37,1.47s-.12,1.01-.37,1.47c-.25.46-.58.86-1.01,1.2-.43.34-.92.6-1.49.79s-1.17.29-1.82.29-1.24-.1-1.8-.29Z"/>
    <path class="cls-1" d="M309.38,36.67c0,.39-.27.55-.81.5-.39-.05-.95-.09-1.7-.12-.75-.03-1.7-.04-2.86-.04s-2.11.01-2.86.04c-.75.02-1.32.06-1.7.12-.54.05-.81-.12-.81-.5,0-.28.25-.5.74-.66.44-.13.7-.39.79-.79.09-.4.14-.96.14-1.68v-9.75c0-.75-.04-1.46-.14-2.15-.09-.68-.26-1.28-.52-1.8s-.61-.93-1.04-1.24-.99-.46-1.66-.46-1.28.15-1.76.46-.86.72-1.16,1.24c-.3.52-.51,1.1-.64,1.76-.13.66-.19,1.32-.19,1.99v9.94c0,.72.05,1.28.15,1.68.1.4.38.66.81.79.46.15.7.37.7.66,0,.39-.26.55-.77.5-.39-.05-.95-.09-1.7-.12-.75-.03-1.7-.04-2.86-.04s-2.11.01-2.86.04c-.75.02-1.33.06-1.74.12-.52.05-.77-.12-.77-.5,0-.18.06-.32.19-.41.13-.09.3-.17.5-.25.44-.13.71-.39.81-.79.1-.4.16-.96.16-1.68v-12.19c0-.75-.05-1.32-.16-1.72-.1-.4-.37-.66-.81-.79-.49-.13-.73-.35-.73-.66,0-.36.22-.58.66-.66.67-.13,1.65-.37,2.94-.73,1.29-.36,2.68-.92,4.18-1.66.26-.13.46-.15.6-.06.14.09.24.28.29.56l.35,2.98c.26-.52.58-1.01.97-1.49.39-.48.85-.9,1.39-1.28.54-.37,1.17-.67,1.9-.89s1.55-.33,2.48-.33c2.79,0,4.8.77,6.04,2.3,1.24,1.53,1.86,3.82,1.86,6.87v9.75c0,.72.04,1.28.13,1.68.09.4.36.66.79.79.49.15.74.37.74.66Z"/>
    <path class="cls-1" d="M336.55,35.89c.13.08.19.22.19.43,0,.34-.27.5-.81.5-.44,0-1,.01-1.68.04-.68.03-1.39.06-2.11.1-.72.04-1.42.08-2.09.13-.67.05-1.21.1-1.62.15-.54.08-.81-.15-.81-.7v-2.21c-.62.98-1.44,1.78-2.48,2.4-1.03.62-2.34.93-3.91.93s-2.93-.31-4.14-.93c-1.21-.62-2.23-1.49-3.04-2.61s-1.42-2.47-1.82-4.04c-.4-1.57-.56-3.3-.48-5.18.08-1.86.43-3.47,1.04-4.84.62-1.37,1.45-2.49,2.5-3.37s2.26-1.48,3.64-1.8c1.38-.32,2.84-.37,4.39-.14,1.01.16,1.86.46,2.57.91.71.45,1.28,1.01,1.72,1.68v-2.4c0-.72-.04-1.28-.14-1.68-.09-.4-.35-.66-.79-.79-.49-.18-.74-.41-.74-.7,0-.36.23-.59.7-.7.34-.05.78-.14,1.34-.25s1.17-.27,1.84-.46,1.39-.43,2.15-.7c.76-.27,1.5-.59,2.22-.95.23-.13.43-.15.6-.06.17.09.25.28.25.56v23.95c0,.75.05,1.32.15,1.7s.37.65.81.77c.23.08.41.15.54.23ZM326.89,32.08c.66-1.61.92-4.11.79-7.49-.1-2.66-.59-4.61-1.45-5.86-.87-1.25-1.94-1.84-3.23-1.76-.64.05-1.21.33-1.68.83s-.86,1.18-1.16,2.03-.52,1.84-.66,2.98c-.14,1.13-.2,2.36-.17,3.68.03,1.34.17,2.53.43,3.56.26,1.03.59,1.9,1.01,2.59.41.7.89,1.21,1.43,1.55s1.12.48,1.74.43c1.32-.08,2.3-.92,2.96-2.53Z"/>
  </g>
  <g>
    <path class="cls-1" d="M92.18,46.82h-3.36v2.23h3.25v1.25h-3.25v3.24h-1.31v-7.98h4.67v1.25Z"/>
    <path class="cls-1" d="M97.36,47.84h1.23v5.7h-1.23v-.73c-.37.58-.96.88-1.77.88-.65,0-1.18-.21-1.58-.63-.4-.42-.6-.99-.6-1.72v-3.5h1.23v3.37c0,.43.11.75.34.98.23.23.54.34.93.34.43,0,.78-.13,1.05-.4.27-.27.4-.68.4-1.24v-3.05Z"/>
    <path class="cls-1" d="M103.22,47.69c.65,0,1.18.21,1.58.63.4.42.6.99.6,1.72v3.5h-1.23v-3.37c0-.43-.11-.75-.34-.98-.23-.23-.54-.34-.93-.34-.43,0-.78.14-1.05.41-.27.27-.4.68-.4,1.24v3.05h-1.23v-5.7h1.23v.73c.37-.58.96-.88,1.77-.88Z"/>
    <path class="cls-1" d="M107.89,51.22c.09.43.3.77.63,1,.33.23.73.35,1.2.35.65,0,1.14-.24,1.47-.71l1.01.59c-.56.83-1.39,1.24-2.5,1.24-.93,0-1.68-.28-2.25-.85s-.85-1.28-.85-2.15.28-1.56.84-2.14c.56-.57,1.28-.86,2.16-.86.84,0,1.52.29,2.06.88.53.58.8,1.3.8,2.13,0,.13-.02.3-.05.51h-4.53ZM107.88,50.21h3.35c-.08-.46-.27-.81-.58-1.05-.3-.23-.65-.35-1.05-.35-.46,0-.84.12-1.14.38s-.5.59-.58,1.03Z"/>
    <path class="cls-1" d="M114.98,48.8c.31-.71.9-1.06,1.76-1.06v1.33c-.47-.03-.88.08-1.23.34-.35.25-.52.67-.52,1.26v2.87h-1.23v-5.7h1.23v.96Z"/>
    <path class="cls-1" d="M122.09,47.84h1.23v5.7h-1.23v-.82c-.46.65-1.13.97-1.99.97-.78,0-1.45-.29-2.01-.87s-.83-1.29-.83-2.12.28-1.55.83-2.13c.55-.58,1.22-.87,2.01-.87.87,0,1.53.32,1.99.96v-.81ZM119,52c.34.35.77.52,1.29.52s.95-.17,1.29-.52c.34-.35.51-.78.51-1.3s-.17-.96-.51-1.31c-.34-.35-.77-.52-1.29-.52s-.95.17-1.29.52c-.34.35-.51.78-.51,1.31s.17.96.51,1.3Z"/>
    <path class="cls-1" d="M124.95,53.54v-8.32h1.23v8.32h-1.23Z"/>
    <path class="cls-1" d="M132.52,53.54l-2.17-7.98h1.37l1.68,6.23,1.81-6.23h1.21l1.8,6.23,1.68-6.23h1.29l-2.17,7.98h-1.52l-1.69-5.84-1.7,5.84h-1.6Z"/>
    <path class="cls-1" d="M142.7,51.22c.09.43.3.77.63,1,.33.23.73.35,1.2.35.65,0,1.14-.24,1.47-.71l1.01.59c-.56.83-1.39,1.24-2.49,1.24-.93,0-1.68-.28-2.25-.85s-.85-1.28-.85-2.15.28-1.56.84-2.14c.56-.57,1.28-.86,2.16-.86.84,0,1.52.29,2.06.88.53.58.8,1.3.8,2.13,0,.13-.01.3-.04.51h-4.54ZM142.69,50.21h3.35c-.08-.46-.27-.81-.58-1.05-.3-.23-.65-.35-1.05-.35-.46,0-.84.12-1.14.38s-.5.59-.58,1.03Z"/>
    <path class="cls-1" d="M151.78,47.69c.78,0,1.45.29,2,.87.55.58.83,1.29.83,2.13s-.28,1.54-.83,2.12-1.22.87-2,.87c-.87,0-1.53-.32-1.99-.97v.82h-1.23v-7.98h1.23v3.09c.46-.64,1.13-.96,1.99-.96ZM150.3,52c.34.35.77.52,1.29.52s.95-.17,1.29-.52c.34-.35.51-.78.51-1.3s-.17-.96-.51-1.31-.77-.52-1.29-.52-.95.17-1.29.52-.51.78-.51,1.31.17.96.51,1.3Z"/>
    <path class="cls-1" d="M156.92,49.41c0,.19.1.34.32.44.21.11.46.21.76.3.29.09.6.18.91.28.31.09.57.27.78.53.21.26.31.58.31.97,0,.55-.21.97-.63,1.29-.42.31-.95.47-1.59.47-.56,0-1.04-.12-1.45-.35-.4-.24-.7-.56-.88-.98l1.06-.61c.2.55.62.82,1.26.82s.97-.21.97-.64c0-.18-.1-.33-.31-.45-.21-.11-.46-.22-.76-.31-.29-.09-.59-.18-.91-.28-.31-.09-.57-.27-.78-.51-.21-.25-.31-.56-.31-.94,0-.52.2-.95.6-1.26.4-.32.9-.48,1.49-.48.47,0,.89.1,1.26.31s.65.5.85.87l-1.04.58c-.2-.43-.55-.65-1.07-.65-.24,0-.43.05-.59.15s-.24.25-.24.45Z"/>
    <path class="cls-1" d="M162.36,46.75c-.16.16-.34.23-.55.23s-.4-.08-.55-.23c-.16-.15-.23-.34-.23-.55s.07-.4.23-.55.34-.23.56-.23.41.08.56.23c.15.16.23.34.23.55s-.08.4-.23.55ZM161.2,53.54v-5.7h1.23v5.7h-1.23Z"/>
    <path class="cls-1" d="M167.23,49.03h-1.42v2.74c0,.24.05.4.16.51s.27.16.48.17c.21.01.47,0,.78,0v1.1c-.94.11-1.62.03-2.03-.25-.41-.28-.61-.79-.61-1.53v-2.74h-1.05v-1.18h1.05v-1.23l1.23-.37v1.6h1.42v1.18Z"/>
    <path class="cls-1" d="M169.27,51.22c.09.43.3.77.63,1,.33.23.73.35,1.2.35.65,0,1.14-.24,1.47-.71l1.02.59c-.56.83-1.4,1.24-2.5,1.24-.93,0-1.68-.28-2.25-.85s-.86-1.28-.86-2.15.28-1.56.84-2.14c.56-.57,1.28-.86,2.17-.86.84,0,1.52.29,2.06.88s.8,1.3.8,2.13c0,.13-.02.3-.05.51h-4.53ZM169.26,50.21h3.35c-.08-.46-.28-.81-.57-1.05-.3-.23-.65-.35-1.05-.35-.46,0-.84.12-1.14.38s-.5.59-.58,1.03Z"/>
    <path class="cls-1" d="M176.01,49.41c0,.19.11.34.32.44.21.11.46.21.76.3.29.09.6.18.91.28.31.09.57.27.78.53s.31.58.31.97c0,.55-.21.97-.63,1.29-.42.31-.95.47-1.59.47-.56,0-1.04-.12-1.45-.35-.4-.24-.7-.56-.88-.98l1.06-.61c.2.55.62.82,1.26.82s.97-.21.97-.64c0-.18-.11-.33-.31-.45-.21-.11-.46-.22-.76-.31s-.6-.18-.91-.28c-.31-.09-.57-.27-.78-.51-.21-.25-.31-.56-.31-.94,0-.52.2-.95.6-1.26.4-.32.9-.48,1.49-.48.47,0,.89.1,1.26.31s.65.5.85.87l-1.04.58c-.2-.43-.55-.65-1.07-.65-.24,0-.43.05-.59.15s-.24.25-.24.45Z"/>
    <path class="cls-1" d="M186.62,47.69c.78,0,1.45.29,2.01.87.55.58.83,1.29.83,2.13s-.28,1.54-.83,2.12-1.22.87-2.01.87c-.87,0-1.53-.32-1.99-.97v.82h-1.23v-7.98h1.23v3.09c.46-.64,1.13-.96,1.99-.96ZM185.14,52c.34.35.77.52,1.29.52s.95-.17,1.29-.52c.34-.35.51-.78.51-1.3s-.17-.96-.51-1.31c-.34-.35-.77-.52-1.29-.52s-.95.17-1.29.52-.51.78-.51,1.31.17.96.51,1.3Z"/>
    <path class="cls-1" d="M194.38,47.84h1.31l-2.19,5.88c-.54,1.47-1.47,2.17-2.78,2.1v-1.15c.39.02.7-.06.94-.24.23-.19.43-.48.58-.87l.06-.11-2.42-5.59h1.35l1.7,4.14,1.45-4.14Z"/>
    <path class="cls-1" d="M201.38,53.54l-2.17-7.98h1.37l1.68,6.23,1.81-6.23h1.21l1.8,6.23,1.68-6.23h1.29l-2.17,7.98h-1.51l-1.69-5.84-1.7,5.84h-1.6Z"/>
    <path class="cls-1" d="M211.56,51.22c.09.43.3.77.63,1,.33.23.72.35,1.2.35.65,0,1.14-.24,1.47-.71l1.02.59c-.56.83-1.4,1.24-2.5,1.24-.93,0-1.67-.28-2.24-.85-.57-.57-.86-1.28-.86-2.15s.28-1.56.84-2.14c.56-.57,1.29-.86,2.17-.86.83,0,1.52.29,2.06.88s.8,1.3.8,2.13c0,.13-.02.3-.05.51h-4.53ZM211.55,50.21h3.35c-.08-.46-.28-.81-.57-1.05-.3-.23-.65-.35-1.05-.35-.46,0-.84.12-1.14.38-.3.25-.49.59-.58,1.03Z"/>
    <path class="cls-1" d="M221.89,47.84h1.23v5.7h-1.23v-.82c-.46.65-1.13.97-1.99.97-.78,0-1.45-.29-2.01-.87s-.83-1.29-.83-2.12.28-1.55.83-2.13c.55-.58,1.22-.87,2.01-.87.87,0,1.53.32,1.99.96v-.81ZM218.81,52c.34.35.77.52,1.29.52s.95-.17,1.29-.52c.34-.35.51-.78.51-1.3s-.17-.96-.51-1.31-.77-.52-1.29-.52-.94.17-1.29.52-.51.78-.51,1.31.17.96.51,1.3Z"/>
    <path class="cls-1" d="M228.62,47.84h1.35l-2.22,5.7h-1.43l-2.22-5.7h1.35l1.6,4.34,1.58-4.34Z"/>
    <path class="cls-1" d="M231.67,51.22c.09.43.3.77.63,1,.33.23.72.35,1.2.35.65,0,1.14-.24,1.47-.71l1.02.59c-.56.83-1.4,1.24-2.5,1.24-.93,0-1.67-.28-2.24-.85-.57-.57-.86-1.28-.86-2.15s.28-1.56.84-2.14c.56-.57,1.29-.86,2.17-.86.83,0,1.52.29,2.06.88s.8,1.3.8,2.13c0,.13-.02.3-.05.51h-4.53ZM231.66,50.21h3.35c-.08-.46-.28-.81-.57-1.05-.3-.23-.65-.35-1.05-.35-.46,0-.84.12-1.14.38-.3.25-.49.59-.58,1.03Z"/>
  </g>
</svg>